<?xml version="1.0" standalone="no"?>
<!DOCTYPE svg PUBLIC "-//W3C//DTD SVG 20010904//EN"
 "http://www.w3.org/TR/2001/REC-SVG-20010904/DTD/svg10.dtd">
<svg version="1.0" xmlns="http://www.w3.org/2000/svg"
 width="400.000000pt" height="400.000000pt" viewBox="0 0 400.000000 400.000000"
 preserveAspectRatio="xMidYMid meet">

<g transform="translate(0.000000,400.000000) scale(0.100000,-0.100000)"
fill="#000000" stroke="none">
<path d="M1810 3924 c-59 -8 -204 -35 -213 -41 -5 -3 2 -16 14 -29 20 -22 21
-24 4 -24 -10 0 -16 -2 -14 -5 3 -2 52 3 109 12 146 22 434 22 565 -1 405 -69
722 -227 1004 -500 276 -268 459 -603 531 -973 21 -104 39 -343 27 -343 -3 0
-59 32 -124 71 -65 40 -178 103 -250 141 -102 54 -133 74 -133 89 0 35 -60
200 -104 290 -242 487 -739 781 -1280 756 -102 -5 -222 -21 -235 -33 -1 -1 7
-13 18 -25 l21 -23 -112 -37 c-121 -39 -296 -123 -393 -188 -55 -38 -60 -39
-77 -24 -15 13 -16 19 -5 32 21 26 -51 -28 -112 -85 -165 -153 -296 -373 -361
-604 l-26 -95 -130 -65 c-71 -36 -185 -96 -252 -134 l-122 -70 0 -51 c0 -70
17 -200 41 -324 76 -382 287 -748 580 -1008 323 -286 785 -463 1209 -463 l96
0 41 -39 42 -38 103 14 c352 47 664 182 946 410 102 83 262 249 262 272 0 8
-9 25 -21 37 l-21 22 55 79 c122 175 220 380 284 596 l37 124 25 -23 c42 -39
42 -41 68 111 23 136 23 432 -1 570 -21 128 -68 305 -106 400 -251 632 -794
1077 -1465 1201 -87 16 -442 28 -525 18z m270 -801 l65 -67 -64 57 -65 57 -63
-62 -63 -62 50 -51 c28 -28 50 -55 50 -60 0 -5 -25 15 -55 45 l-55 54 -73 -72
c-63 -62 -100 -91 -83 -64 3 5 -24 37 -59 72 l-65 64 -60 -59 c-33 -33 -60
-64 -60 -69 0 -6 19 -30 43 -55 l42 -45 -45 39 c-25 21 -48 43 -52 49 -4 6 -8
8 -10 5 -2 -2 -30 -33 -63 -67 l-59 -62 54 -55 c30 -30 50 -55 45 -55 -5 0
-33 23 -61 51 l-52 52 -59 -63 c-32 -35 -58 -66 -58 -71 0 -4 26 -35 59 -68
56 -59 59 -61 77 -45 11 9 19 15 19 12 0 -12 -27 -57 -32 -53 -2 2 -33 -25
-68 -60 l-65 -65 62 -62 c61 -61 62 -61 87 -44 30 19 34 11 9 -16 -16 -18 -14
-22 45 -81 l62 -62 65 65 c36 35 65 60 65 55 0 -5 -27 -37 -60 -70 l-60 -61
65 -64 65 -64 65 64 65 64 -57 58 c-32 32 -53 58 -48 58 5 0 33 -23 62 -52
l53 -52 65 64 65 64 -37 41 -38 40 40 -37 40 -38 67 67 68 67 -58 61 -57 60
60 -58 61 -57 39 40 c21 22 41 37 44 35 2 -3 -13 -23 -34 -45 l-39 -40 44 -48
45 -47 -48 45 -47 44 -68 -67 -67 -68 53 -45 c28 -25 52 -51 52 -57 0 -6 -25
13 -55 43 l-55 54 -65 -64 -65 -64 45 -46 c25 -25 45 -50 45 -55 0 -5 -23 13
-50 40 l-50 49 -65 -64 -65 -64 43 -46 42 -45 -45 42 -46 43 -62 -63 c-34 -34
-62 -67 -62 -72 0 -5 12 -23 27 -39 28 -31 28 -31 -7 1 l-36 33 -64 -65 c-63
-63 -63 -65 -45 -85 21 -23 10 -27 -15 -5 -14 13 -23 8 -80 -50 l-64 -65 54
-57 55 -58 -58 55 -57 55 -68 -68 -67 -67 62 -62 63 -62 42 40 c24 22 52 47
63 55 19 13 19 13 6 -6 -8 -11 -33 -39 -55 -63 l-40 -42 62 -62 c48 -49 64
-60 74 -50 17 17 33 15 18 -3 -11 -13 -3 -25 46 -78 32 -34 59 -64 61 -66 6
-9 133 124 129 134 -2 5 7 11 21 11 17 2 21 -1 14 -10 -8 -9 7 -29 52 -74 l62
-61 67 65 c38 37 66 69 64 73 -3 4 4 8 16 8 12 1 18 -3 15 -11 -3 -7 21 -40
54 -72 32 -32 56 -60 53 -63 -2 -3 -31 22 -64 54 l-60 59 -65 -64 -65 -64 62
-63 63 -63 132 132 c73 73 132 137 129 143 -2 5 7 11 20 11 14 1 21 -3 18 -10
-3 -7 22 -42 55 -77 l60 -64 65 65 c37 36 65 69 62 75 -2 6 5 11 15 11 11 0
18 -5 15 -12 -2 -6 24 -39 58 -73 l61 -61 135 135 134 135 -47 48 c-26 26 -47
52 -47 57 0 5 24 -14 53 -43 l53 -52 64 65 65 65 -63 62 -62 63 -65 -65 c-36
-36 -64 -69 -61 -75 2 -6 -4 -11 -14 -11 -11 0 -17 8 -17 22 0 13 4 20 11 18
6 -2 39 24 74 59 l62 63 -65 64 -65 64 -30 -29 c-36 -35 -41 -22 -5 15 l25 26
-63 62 -63 62 -63 -64 -64 -65 18 -28 17 -28 -23 22 -23 23 -23 -22 c-30 -28
-43 -15 -15 15 l22 23 -45 44 c-25 24 -45 49 -45 54 0 6 23 -12 50 -39 l50
-49 62 59 c35 33 65 61 67 63 3 1 -14 21 -37 44 -23 22 -42 45 -42 51 0 6 19
-8 43 -31 23 -23 46 -42 51 -42 4 0 33 27 65 60 l57 59 -50 50 c-28 28 -47 54
-43 58 4 4 14 -2 22 -13 7 -12 30 -33 50 -48 l36 -28 63 60 63 61 -63 62 -64
63 -30 -29 c-36 -35 -40 -22 -5 15 23 24 24 28 10 40 -8 7 -15 17 -15 23 0 5
9 2 20 -8 20 -18 22 -18 85 45 l65 65 -64 64 c-64 64 -65 65 -86 46 -11 -10
-20 -13 -20 -8 0 6 7 16 15 23 14 12 13 17 -12 44 -25 28 -26 29 -2 8 14 -12
30 -22 35 -22 5 0 36 27 69 60 l60 60 -63 62 -62 63 -55 -55 c-30 -29 -57 -51
-60 -48 -3 3 29 38 70 79 84 82 99 95 70 61 l-19 -23 135 -135 c73 -74 139
-132 146 -130 7 3 10 -1 7 -8 -3 -7 25 -40 61 -75 36 -34 65 -65 65 -68 0 -3
-30 -36 -67 -74 l-67 -70 64 -64 c53 -53 66 -62 79 -53 13 10 14 10 4 -2 -10
-11 -9 -18 5 -33 16 -19 16 -19 -5 -6 -21 13 -27 10 -83 -46 -33 -33 -60 -64
-60 -70 0 -6 27 -37 60 -70 57 -56 62 -59 83 -46 20 13 21 13 8 -2 -7 -9 -10
-24 -7 -33 5 -13 4 -14 -7 -6 -10 9 -27 -3 -77 -53 -63 -63 -63 -65 -45 -85
21 -23 10 -27 -15 -5 -14 13 -23 8 -80 -50 l-64 -65 64 -65 c50 -50 67 -62 77
-53 7 6 16 9 18 6 3 -3 -31 -40 -75 -84 -46 -45 -78 -84 -75 -92 3 -8 0 -10
-6 -6 -13 7 -141 -115 -133 -128 3 -4 -1 -8 -8 -8 -8 0 -40 -27 -73 -61 -63
-63 -99 -90 -90 -67 3 7 -23 41 -58 76 l-62 62 -140 -140 -140 -140 -71 71
-71 70 -65 -70 -66 -71 -68 70 c-59 61 -69 68 -83 57 -32 -28 -45 -29 -21 -3
l24 27 -65 64 -64 65 -64 -64 c-59 -59 -62 -65 -50 -87 12 -23 11 -23 -6 -9
-10 8 -81 79 -158 157 -119 122 -142 141 -155 130 -13 -10 -15 -9 -8 7 5 16
-16 43 -111 140 -65 67 -95 99 -68 73 28 -26 55 -47 61 -47 5 0 38 28 72 63
l62 63 -65 64 -65 64 -70 -69 c-88 -87 -92 -76 -5 14 l64 67 -63 63 c-42 41
-68 61 -77 56 -8 -5 -10 -4 -5 4 4 6 2 20 -6 29 -11 15 -11 15 2 5 13 -10 27
0 82 53 l66 64 -66 64 c-55 53 -69 63 -82 53 -30 -24 12 23 83 91 l68 66 -63
63 c-34 35 -69 63 -77 63 -9 0 19 35 62 78 43 43 74 82 70 87 -4 4 -3 5 3 2 6
-3 70 54 144 128 122 122 132 135 119 152 -13 17 -13 17 4 4 16 -13 24 -8 83
50 36 35 62 70 59 77 -3 8 0 10 6 6 6 -3 44 26 85 67 43 43 74 67 74 58 0 -16
111 -129 127 -129 5 0 37 28 71 63 52 52 60 65 50 77 -11 12 -10 12 3 2 13 -9
27 0 84 58 38 39 70 70 70 70 0 0 30 -30 65 -67z m107 -51 c-10 -10 -17 -23
-17 -28 0 -5 27 -36 59 -69 l60 -58 71 67 c39 36 75 64 79 61 5 -3 33 -33 62
-67 l53 -63 -62 60 -62 59 -60 -59 c-41 -40 -58 -65 -55 -76 5 -14 1 -16 -15
-12 -11 3 -20 11 -20 18 0 7 -28 39 -62 69 l-62 56 -53 -52 c-29 -28 -55 -50
-57 -47 -5 5 143 159 152 159 3 0 -2 -8 -11 -18z m404 -151 c-8 -14 -7 -22 5
-31 8 -7 33 -36 56 -64 l42 -51 -62 60 -62 59 -48 -47 c-26 -26 -52 -47 -57
-47 -5 0 22 32 60 70 38 39 71 70 73 70 1 0 -2 -9 -7 -19z m-365 -86 c200 -58
335 -204 374 -403 23 -116 -8 -260 -81 -373 -85 -130 -270 -280 -583 -471
l-79 -48 387 0 388 0 -6 -37 c-3 -21 -8 -85 -11 -143 -3 -58 -8 -117 -11 -133
l-6 -27 -609 0 -609 0 0 168 1 167 195 140 c421 302 595 473 630 621 32 140
-48 256 -188 271 -145 15 -248 -71 -285 -237 -14 -61 -21 -79 -33 -76 -8 3
-84 19 -167 37 -93 20 -153 38 -153 45 0 29 45 155 78 219 47 90 155 201 236
240 103 50 169 64 312 64 113 1 145 -3 220 -24z m-1521 -852 c22 -283 92 -500
228 -703 64 -96 241 -273 337 -337 204 -137 429 -210 698 -229 56 -4 100 -9
97 -12 -3 -3 4 -11 15 -19 11 -8 20 -18 20 -22 0 -16 -119 -22 -231 -11 -298
29 -583 160 -806 373 -270 259 -423 601 -423 948 0 134 4 146 35 115 20 -20
25 -38 30 -103z m2616 -255 c13 3 1 -69 -29 -163 -40 -129 -113 -264 -200
-373 l-35 -42 -18 21 c-11 12 -19 24 -19 26 0 3 13 23 28 46 84 123 167 300
211 447 22 70 24 73 38 55 8 -11 19 -19 24 -17z m-1116 -98 c10 -11 16 -20 13
-20 -3 0 -13 9 -23 20 -10 11 -16 20 -13 20 3 0 13 -9 23 -20z m481 -497 c-7
-7 -26 7 -26 19 0 6 6 6 15 -2 9 -7 13 -15 11 -17z m-358 -193 c7 -11 11 -20
9 -20 -2 0 -12 9 -22 20 -10 11 -14 20 -9 20 5 0 15 -9 22 -20z m-793 -334
c19 -8 35 -17 35 -19 0 -2 -16 -43 -36 -91 -19 -49 -33 -91 -29 -94 3 -3 20
-12 39 -21 l35 -16 -17 -31 -17 -30 -116 46 -117 46 13 31 c13 31 15 31 49 21
22 -7 40 -8 45 -2 7 8 32 68 60 147 12 32 11 31 56 13z m553 -73 c37 -23 52
-73 52 -173 l0 -90 -45 0 -45 0 0 83 c0 115 -31 156 -80 107 -17 -17 -20 -33
-20 -105 l0 -85 -46 0 -46 0 4 105 c3 86 7 109 24 132 36 48 145 62 202 26z"/>
<path d="M1116 2554 l-60 -65 64 -64 65 -65 65 65 65 65 -65 65 c-35 36 -67
64 -70 64 -3 -1 -32 -30 -64 -65z"/>
<path d="M2782 2557 l-62 -63 65 -64 65 -65 62 63 63 62 -65 65 -65 65 -63
-63z"/>
<path d="M981 2416 l-63 -63 63 -67 62 -67 69 68 68 67 -62 63 c-34 35 -65 63
-68 63 -3 0 -34 -29 -69 -64z"/>
<path d="M2922 2417 l-62 -63 62 -61 63 -62 42 35 c24 19 51 48 62 63 l20 28
-62 61 -63 62 -62 -63z"/>
<path d="M1120 2275 l-65 -65 62 -62 62 -62 57 50 c88 77 88 74 19 144 -33 33
-62 60 -65 60 -3 0 -35 -29 -70 -65z"/>
<path d="M2782 2277 l-62 -63 62 -61 63 -62 53 46 c83 72 84 76 16 144 -32 33
-61 59 -64 59 -3 0 -34 -28 -68 -63z"/>
<path d="M982 2137 l-62 -63 62 -61 63 -62 63 57 c34 32 62 63 62 68 0 10
-111 124 -121 124 -2 0 -33 -28 -67 -63z"/>
<path d="M1260 2135 l-65 -65 63 -62 62 -63 67 67 68 68 -60 60 c-33 33 -62
60 -65 60 -3 0 -35 -29 -70 -65z"/>
<path d="M2922 2137 l-62 -63 63 -62 63 -62 64 65 64 65 -59 60 c-33 33 -62
60 -65 60 -3 0 -34 -28 -68 -63z"/>
<path d="M1122 1997 l-62 -63 63 -62 63 -62 64 65 64 65 -59 60 c-33 33 -62
60 -65 60 -3 0 -34 -28 -68 -63z"/>
<path d="M1397 2002 c-31 -32 -57 -62 -57 -68 0 -5 27 -36 60 -69 l60 -60 67
68 68 67 -60 60 c-33 33 -64 60 -70 60 -6 0 -36 -26 -68 -58z"/>
<path d="M2782 1997 l-62 -63 62 -57 c34 -31 65 -57 68 -57 3 0 32 27 65 60
l59 60 -59 60 c-33 33 -62 60 -65 60 -3 0 -34 -28 -68 -63z"/>
<path d="M1260 1865 l-64 -65 64 -65 65 -65 65 65 65 65 -65 65 -65 65 -65
-65z"/>
<path d="M2922 1867 l-64 -64 62 -59 c34 -32 65 -60 69 -62 3 -1 33 25 66 58
l60 60 -65 65 -65 65 -63 -63z"/>
<path d="M982 1857 l-62 -63 63 -62 63 -62 64 65 64 65 -59 60 c-33 33 -62 60
-65 60 -3 0 -34 -28 -68 -63z"/>
<path d="M2645 1860 l-60 -60 63 -63 62 -62 62 62 63 63 -60 60 c-33 33 -62
60 -65 60 -3 0 -32 -27 -65 -60z"/>
<path d="M1120 1725 l-64 -65 64 -65 65 -65 65 65 65 65 -65 65 -65 65 -65
-65z"/>
<path d="M2782 1727 l-62 -63 65 -64 65 -65 62 63 63 62 -65 65 -65 65 -63
-63z"/>
<path d="M2090 1035 l-64 -65 64 -65 65 -65 65 65 65 65 -65 65 -65 65 -65
-65z"/>
<path d="M1860 3638 c0 -62 5 -113 13 -128 30 -61 160 -82 216 -34 40 33 53
81 49 179 l-3 80 -47 3 -48 3 0 -93 c0 -97 -8 -118 -41 -118 -34 0 -49 39 -49
127 l0 83 -45 0 -45 0 0 -102z"/>
<path d="M2432 3675 c-17 -38 -15 -42 23 -55 19 -6 35 -15 35 -20 0 -8 -58
-157 -67 -173 -6 -10 80 -48 88 -39 4 4 21 46 39 93 35 94 33 92 101 65 11 -5
18 2 26 29 6 19 8 37 5 39 -18 11 -216 86 -226 86 -7 0 -18 -11 -24 -25z"/>
<path d="M1400 3636 l-35 -13 -11 -149 c-6 -82 -9 -151 -8 -153 2 -2 24 2 49
9 36 10 45 17 45 35 0 18 9 25 45 35 35 10 51 10 68 1 17 -8 32 -8 65 2 l43
13 -101 117 c-56 64 -107 117 -113 116 -7 0 -28 -6 -47 -13z m74 -138 c14 -20
14 -23 0 -31 -20 -11 -29 -2 -29 29 -1 30 9 31 29 2z"/>
<path d="M670 3393 c-176 -168 -295 -329 -396 -538 -102 -211 -176 -471 -178
-626 -1 -60 2 -69 31 -102 l32 -36 6 57 c22 210 50 337 111 504 99 270 247
492 475 713 62 61 106 104 97 97 -14 -11 -20 -10 -37 7 -12 12 -25 21 -30 21
-5 0 -55 -44 -111 -97z"/>
<path d="M2887 3338 l-87 -102 27 -28 c34 -35 42 -35 78 2 16 17 31 30 34 30
3 -1 19 -12 36 -25 l30 -24 -35 -36 -34 -35 29 -30 c16 -16 34 -30 41 -30 6 0
51 46 98 101 l87 102 -27 28 c-35 36 -46 36 -77 -1 -31 -36 -37 -37 -66 -6
-24 26 -23 35 12 74 l21 22 -29 30 c-16 17 -34 30 -39 30 -6 -1 -50 -46 -99
-102z"/>
<path d="M940 3398 c-92 -47 -115 -165 -46 -234 58 -58 146 -64 210 -13 57 45
75 130 39 191 -20 36 -92 78 -133 78 -14 0 -46 -10 -70 -22z m105 -93 c29 -28
31 -42 9 -73 -10 -14 -25 -22 -44 -22 -58 0 -80 89 -27 110 33 13 36 12 62
-15z"/>
</g>
</svg>
