<?xml version="1.0" standalone="no"?>
<!DOCTYPE svg PUBLIC "-//W3C//DTD SVG 20010904//EN"
 "http://www.w3.org/TR/2001/REC-SVG-20010904/DTD/svg10.dtd">
<svg version="1.0" xmlns="http://www.w3.org/2000/svg"
 width="818.000000pt" height="980.000000pt" viewBox="0 0 818.000000 980.000000"
 preserveAspectRatio="xMidYMid meet">

<g transform="translate(0.000000,980.000000) scale(0.100000,-0.100000)"
fill="#000000" stroke="none">
<path d="M3277 9613 c-55 -1475 -529 -2892 -1365 -4078 -121 -172 -302 -408
-308 -402 -2 2 -11 59 -19 126 -54 430 -185 858 -398 1290 -54 111 -72 140
-78 125 -3 -10 -14 -73 -23 -140 -50 -379 -195 -822 -476 -1465 -294 -670
-474 -1145 -529 -1403 -97 -446 -102 -896 -15 -1280 164 -729 652 -1335 1584
-1968 225 -153 656 -416 665 -406 1 2 -14 42 -35 89 -145 327 -251 708 -279
1003 -14 142 -14 436 0 551 37 302 161 573 484 1060 236 356 380 619 493 905
83 208 166 488 187 634 4 25 10 46 14 46 14 0 131 -241 155 -320 30 -99 60
-267 77 -430 25 -228 11 -728 -30 -1109 l-8 -74 34 39 c56 66 187 263 251 380
260 473 463 1202 559 2004 21 183 24 562 4 668 -7 40 -11 75 -9 77 5 6 206
-144 313 -234 190 -158 444 -428 602 -637 590 -780 949 -1927 920 -2939 -17
-579 -139 -1096 -385 -1627 -22 -49 -38 -88 -35 -88 20 0 378 228 578 368 892
625 1540 1375 1785 2067 165 469 229 1221 155 1821 -45 365 -136 703 -271
1009 -53 119 -212 428 -314 610 -253 453 -563 915 -828 1235 -94 114 -568 597
-577 589 -2 -3 5 -34 16 -69 35 -114 69 -302 81 -452 24 -311 -29 -681 -150
-1043 l-57 -170 -8 60 c-78 602 -177 896 -486 1438 -398 699 -760 1151 -1242
1554 -94 78 -539 428 -694 544 -136 103 -306 219 -320 219 -8 0 -14 -52 -18
-177z"/>
</g>
</svg>
